<?xml version="1.0" ?>
<svg id="Layer_1" style="enable-background:new 0 0 50 50;" version="1.1" viewBox="0 0 50 50" xml:space="preserve"
     xmlns="http://www.w3.org/2000/svg"><style type="text/css">
	.st0{fill:#F0C4DB;}
	.st1{fill:#FF9D9C;}
	.st2{fill:#9BEAF9;}
	.st3{fill:#E9F4BC;}
	.st4{fill:#505050;}
	.st5{fill:#FEBECC;}
	.st6{fill:#FFFFFF;}
	.st7{fill:#FDE4A1;}
	.st8{fill:#FEE7B5;}
	.st9{fill:#CDF6FC;}
	.st10{fill:#F2C6DD;}
	.st11{opacity:0.1;}
</style><g><path class="st10" d="M39.59,42.67c0-9.61-7.64-17.65-17.25-17.75c-0.07,0-0.15,0-0.22,0c-11.6,0-21,9.4-21,21   c0,0.59,0.04,1.17,0.09,1.75h38.38V42.67z"/><g><path class="st6" d="M48.13,5.85c0-1.53-1.25-2.77-2.77-2.77H4.89c-1.53,0-2.77,1.24-2.77,2.77v26.42h46V5.85z"/><path class="st1" d="M2.13,32.27v3.62c0,1.52,1.24,2.77,2.77,2.77h40.46c1.52,0,2.77-1.25,2.77-2.77v-3.62H2.13z"/><rect class="st2" height="25.5" width="38.62" x="5.82" y="6.77"/><polygon class="st7" points="29.44,38.65 20.81,38.65 18.94,38.65 18.94,44.27 31.31,44.27 31.31,38.65   "/><g><path class="st4" d="M22.74,37.9c-0.42,0-0.75,0.34-0.75,0.76c0,0.41,0.33,0.74,0.75,0.74c0.41,0,0.74-0.33,0.74-0.74     C23.49,38.24,23.16,37.9,22.74,37.9z"/><path class="st4" d="M45.36,2.33H4.9c-1.94,0-3.52,1.58-3.52,3.52v26.41c0,0,0,0,0,0.01s0,0,0,0.01v3.61     c0,1.94,1.58,3.51,3.52,3.51h13.3v4.12h-4.68c-0.41,0-0.75,0.33-0.75,0.75c0,0.41,0.34,0.75,0.75,0.75h23.22     c0.41,0,0.75-0.34,0.75-0.75c0-0.42-0.34-0.75-0.75-0.75h-4.68V39.4l13.3-0.01c1.94,0,3.52-1.58,3.52-3.51V5.85     C48.88,3.91,47.3,2.33,45.36,2.33z M4.9,3.83h40.46c1.11,0,2.02,0.91,2.02,2.02v25.67h-2.19V6.77c0-0.2-0.08-0.39-0.22-0.53     c-0.14-0.14-0.34-0.22-0.53-0.22H14.93c-0.41,0-0.75,0.34-0.75,0.75s0.34,0.75,0.75,0.75h28.76v24H6.57v-24h4.36     c0.42,0,0.75-0.34,0.75-0.75s-0.32-0.74-0.73-0.75c-0.01,0-0.01,0-0.02,0H5.82c-0.2,0-0.39,0.08-0.53,0.22     C5.15,6.38,5.07,6.57,5.07,6.77v24.75H2.88V5.85C2.88,4.73,3.79,3.83,4.9,3.83z M45.36,37.9H24.74c-0.41,0-0.74,0.34-0.74,0.76     c0,0.41,0.33,0.75,0.74,0.75l4.69,0c0,0,0.01,0,0.01,0c0,0,0,0,0,0l1.12,0v4.11H19.7V39.4h1.05h0.06c0.42,0,0.75-0.33,0.75-0.74     c0-0.42-0.33-0.75-0.75-0.75h-0.05l-0.01-0.01H4.9c-1.11,0-2.02-0.9-2.02-2.01v-2.87h2.93c0,0,0,0,0.01,0h38.62c0,0,0,0,0.01,0     h2.93v2.87C47.38,37,46.47,37.9,45.36,37.9z"/><circle class="st4" cx="12.93" cy="6.77" r="0.75"/><path class="st4" d="M10.03,26.23c0.15,0.15,0.34,0.22,0.53,0.22s0.38-0.07,0.53-0.22l5.22-5.22l4.19,4.19     c0.28,0.28,0.78,0.28,1.06,0l5.98-5.98l4.27,4.27c0.29,0.29,0.77,0.29,1.06,0l5.03-5.03v2.4c0,0.41,0.34,0.75,0.75,0.75     s0.75-0.34,0.75-0.75v-4.21c0-0.1-0.02-0.19-0.06-0.29c-0.08-0.18-0.22-0.33-0.41-0.41c-0.09-0.04-0.19-0.06-0.29-0.06h-4.21     c-0.41,0-0.75,0.34-0.75,0.75s0.34,0.75,0.75,0.75h2.4l-4.5,4.5l-4.27-4.27c-0.28-0.28-0.78-0.28-1.06,0l-5.98,5.98l-4.19-4.19     c-0.28-0.28-0.78-0.28-1.06,0l-5.75,5.75C9.74,25.46,9.74,25.93,10.03,26.23z"/></g></g></g></svg>